<?xml version="1.0" standalone="no"?>
<!DOCTYPE svg PUBLIC "-//W3C//DTD SVG 20010904//EN"
 "http://www.w3.org/TR/2001/REC-SVG-20010904/DTD/svg10.dtd">
<svg version="1.0" xmlns="http://www.w3.org/2000/svg"
 width="976.000000pt" height="976.000000pt" viewBox="0 0 976.000000 976.000000"
 preserveAspectRatio="xMidYMid meet">
<metadata>
Created by potrace 1.14, written by Peter Selinger 2001-2017
</metadata>
<g transform="translate(0.000000,976.000000) scale(0.100000,-0.100000)"
fill="#000000" stroke="none">
<path d="M1360 8070 c-25 -4 -65 -11 -90 -15 -24 -4 -47 -8 -51 -10 -3 -2 -21
-7 -39 -10 -50 -9 -197 -59 -265 -90 -33 -16 -63 -27 -67 -27 -5 1 -8 -2 -8
-8 0 -5 -5 -10 -11 -10 -14 0 -156 -85 -176 -106 -8 -8 -24 -19 -35 -25 -31
-17 -75 -55 -163 -144 -129 -130 -194 -215 -268 -355 -42 -79 -102 -216 -113
-255 -1 -5 -10 -37 -19 -70 -22 -83 -25 -96 -45 -225 -5 -30 -9 -1177 -9
-2548 l-1 -2492 3777 3 c2078 1 3789 5 3803 9 22 6 121 20 160 24 8 1 22 3 30
6 8 3 51 13 95 23 288 63 641 232 885 424 48 38 190 162 226 198 39 39 194
220 194 227 0 4 5 12 10 19 6 7 22 26 36 42 68 81 274 468 274 514 0 6 9 30
19 54 23 49 45 125 77 262 19 81 44 251 49 341 16 243 7 2195 -10 2223 -1 4
-6 31 -9 62 -6 54 -9 68 -21 122 -3 12 -8 38 -11 57 -3 19 -10 40 -15 46 -5 6
-6 14 -3 17 3 3 2 12 -2 19 -5 7 -10 24 -12 37 -7 50 -107 301 -164 411 -62
118 -164 282 -179 288 -5 2 -9 10 -9 18 0 8 -4 14 -8 14 -5 0 -13 8 -18 19
-22 45 -261 299 -359 381 -38 32 -197 147 -253 183 -85 55 -247 139 -342 177
-112 45 -126 50 -195 71 -38 12 -77 24 -85 27 -8 3 -19 6 -25 7 -21 6 -171 37
-190 40 -36 7 -99 17 -140 23 -61 9 -6173 11 -6225 2z m2052 -1339 c4 0 -8
-37 -27 -81 -19 -44 -35 -84 -36 -88 -1 -4 -3 -11 -5 -17 -57 -166 -110 -395
-117 -503 0 -10 -192 -12 -942 -12 -1036 0 -988 -2 -1081 61 -95 65 -144 151
-151 268 -10 142 49 256 168 329 79 48 71 48 1161 46 563 0 1026 -2 1030 -3z
m-202 -1855 l0 -353 -942 2 c-839 1 -948 3 -984 17 -156 61 -242 192 -232 356
8 131 74 234 186 288 32 15 64 31 72 35 8 4 439 7 958 8 l942 0 0 -353z m23
-1193 c13 -108 19 -143 43 -238 32 -125 86 -289 119 -356 13 -29 23 -55 20
-59 -2 -3 -473 -6 -1047 -5 -1122 2 -1073 0 -1155 51 -38 25 -103 89 -103 103
0 6 -3 11 -7 11 -10 0 -41 76 -49 120 -25 143 36 288 151 360 97 61 32 57
1071 59 l951 1 6 -47z"/>
</g>
</svg>
