<svg>
  <symbol
    id="logo"
    width="142"
    height="40"
    viewbox="0 0 142 40"
    fill="none"
    xmlns="http://www.w3.org/2000/svg"
  >
    <g clip-path="url(#clip0_13682_306)">
      <path
        d="M9.68305 0C4.32762 0 0 4.30686 0 9.63661V40H40.1928V0H9.68305ZM29.2655 31.6016H8.76343C7.51924 31.6016 6.54552 30.6326 6.54552 29.3943C6.54552 28.1561 7.51924 27.1871 8.76343 27.1871H29.2114C30.4556 27.1871 31.4293 28.1561 31.4293 29.3943C31.4834 30.6326 30.5097 31.6016 29.2655 31.6016ZM29.2655 22.2342H8.76343C7.51924 22.2342 6.54552 21.2651 6.54552 20.0269C6.54552 18.7887 7.51924 17.8196 8.76343 17.8196H29.2114C30.4556 17.8196 31.4293 18.7887 31.4293 20.0269C31.4834 21.2113 30.5097 22.2342 29.2655 22.2342ZM29.2655 12.8129H8.76343C7.51924 12.8129 6.54552 11.8439 6.54552 10.6057C6.54552 9.36743 7.51924 8.39839 8.76343 8.39839H29.2114C30.4556 8.39839 31.4293 9.36743 31.4293 10.6057C31.4834 11.79 30.5097 12.8129 29.2655 12.8129Z"
        fill="#E836B5"
      />
      <path
        d="M45.7646 40H34.5669C26.5608 40 20.0693 33.5397 20.0693 25.572V14.428C20.0693 6.4603 26.5608 0 34.5669 0H45.7646C53.7707 0 60.2621 6.4603 60.2621 14.428V25.572C60.2621 33.5397 53.7707 40 45.7646 40Z"
        fill="#43B6FF"
      />
      <path
        d="M31.4834 8.23688L41.7074 18.4118C42.573 19.2732 42.573 20.673 41.7074 21.5343C40.8419 22.3957 39.4354 22.3957 38.5699 21.5343L28.3459 11.3594C27.4804 10.498 27.4804 9.09825 28.3459 8.23688C29.2114 7.37551 30.6179 7.37551 31.4834 8.23688Z"
        fill="white"
      />
      <path
        d="M49.7136 13.6205L41.7615 21.5343C40.896 22.3957 39.4896 22.3957 38.624 21.5343C37.7585 20.673 37.7585 19.2732 38.624 18.4119L46.5219 10.498C47.3875 9.63662 48.7939 9.63662 49.6595 10.498C50.5791 11.3594 50.5791 12.7591 49.7136 13.6205Z"
        fill="white"
      />
      <path
        d="M72.5417 14.0511C72.5417 14.8048 72.8663 15.397 73.4613 15.9354C74.0564 16.4737 74.8137 16.8506 75.6792 17.1198C76.5448 17.389 77.5185 17.712 78.6004 18.1427C79.6282 18.5733 80.6019 19.004 81.5215 19.4347C82.4412 19.8654 83.1444 20.5653 83.7394 21.5343C84.3345 22.4495 84.6591 23.5801 84.6591 24.8721C84.6591 27.0794 83.9558 28.856 82.5494 30.148C81.1429 31.4401 79.0332 32.14 76.2202 32.14C73.6777 32.14 71.5139 31.6554 69.6747 30.7402C68.9173 30.3095 68.3764 29.825 68.1059 29.2867C67.8354 28.6945 67.8895 28.1561 68.2141 27.5639C68.6469 26.6487 69.6747 26.541 71.1894 27.1332C73.0286 27.9946 74.7596 28.4253 76.3825 28.4253C77.6808 28.4253 78.7086 28.1561 79.4118 27.6716C80.1692 27.1871 80.5478 26.4334 80.5478 25.4643C80.5478 24.4953 80.1151 23.7416 79.3036 23.1494C78.4922 22.5572 77.4644 22.0727 76.3284 21.6958C75.1383 21.319 74.0023 20.8883 72.8122 20.4576C71.6221 19.9731 70.6484 19.2194 69.7829 18.1965C68.9714 17.1736 68.5387 15.8277 68.5387 14.2665C68.5387 12.2746 69.1878 10.7671 70.5402 9.58276C71.8926 8.45221 73.84 7.86002 76.4366 7.86002C78.7627 7.86002 80.7642 8.34454 82.4412 9.31358C83.8476 10.0673 84.2263 11.0363 83.6313 12.2207C83.1444 13.1898 82.0084 13.3513 80.3314 12.5976C78.8709 12.0054 77.4644 11.6824 76.112 11.6824C73.6777 11.5747 72.5417 12.4361 72.5417 14.0511Z"
        fill="white"
      />
      <path
        d="M87.3638 10.1211C87.3638 9.52891 87.5261 9.09823 87.8507 8.72137C88.1753 8.34452 88.6621 8.12918 89.2572 8.12918C89.8522 8.12918 90.3391 8.29069 90.7177 8.72137C91.0423 9.09823 91.2587 9.58275 91.2587 10.1211V25.9488C91.2587 26.9179 91.421 27.6177 91.6914 28.0484C92.016 28.4791 92.5029 28.6945 93.2061 28.6945C93.7471 28.6945 94.3421 28.5329 95.0454 28.2638C95.4781 28.1023 95.9109 28.0484 96.2895 28.1561C96.6682 28.2638 96.9928 28.5329 97.1551 28.9098C97.5337 29.9327 97.1551 30.7402 96.0732 31.3324C95.2076 31.8169 94.0175 32.0861 92.6111 32.0861C89.149 32.0861 87.4179 30.2019 87.4179 26.4872V10.1211H87.3638Z"
        fill="white"
      />
      <path
        d="M108.461 29.2328C107.325 31.2248 105.486 32.1938 102.943 32.1938C101.212 32.1938 99.8598 31.7631 98.8861 30.8479C97.9124 29.9327 97.4255 28.6945 97.4255 27.1871C97.4255 25.249 98.1288 23.7954 99.5352 22.934C100.942 22.0188 102.727 21.5882 104.837 21.5882C106.297 21.5882 107.487 21.642 108.461 21.8035V21.4266C108.461 20.3499 108.245 19.4886 107.758 18.8964C107.271 18.3042 106.351 17.9812 104.945 17.9812C104.62 17.9812 104.35 17.9812 104.079 18.035C103.809 18.035 103.538 18.0888 103.214 18.1965C102.943 18.2503 102.673 18.3042 102.51 18.4118L101.699 18.681C101.32 18.7887 101.05 18.8964 100.888 18.8964C100.455 19.0579 100.076 19.0579 99.6975 18.8964C99.3189 18.7349 99.0484 18.5195 98.9402 18.0888C98.6697 17.2813 98.9402 16.6353 99.8057 16.0431C101.05 15.1817 102.943 14.751 105.432 14.751C109.976 14.751 112.194 16.8506 112.194 21.1036V29.8789C112.194 30.4711 112.031 30.9556 111.707 31.3324C111.382 31.7093 110.949 31.8708 110.3 31.8708C109.705 31.8708 109.218 31.6554 108.894 31.2786C108.569 30.9017 108.407 30.4172 108.407 29.8789V29.2328H108.461ZM107.271 27.7793C108.082 26.8641 108.461 25.8412 108.461 24.6568V24.0646C107.704 23.9569 106.73 23.9031 105.378 23.9031C102.619 23.9031 101.266 24.8721 101.266 26.8102C101.266 27.5101 101.483 28.1023 101.97 28.533C102.456 28.9637 103.106 29.179 103.971 29.179C105.378 29.1252 106.459 28.6945 107.271 27.7793Z"
        fill="white"
      />
      <path
        d="M116.305 12.8667C116.305 12.2745 116.467 11.8439 116.792 11.467C117.116 11.0902 117.603 10.8748 118.198 10.8748C118.793 10.8748 119.28 11.0363 119.659 11.467C119.983 11.8439 120.2 12.3284 120.2 12.8667V14.9663H123.121C124.365 14.9663 124.96 15.5047 124.96 16.6352C124.96 17.7658 124.365 18.3042 123.121 18.3042H120.2V25.9488C120.2 26.9179 120.362 27.6177 120.632 28.0484C120.957 28.4791 121.444 28.6945 122.147 28.6945C122.688 28.6945 123.283 28.533 123.986 28.2638C124.419 28.1023 124.852 28.0484 125.23 28.1561C125.609 28.2638 125.88 28.533 126.042 28.9098C126.421 29.8789 126.096 30.6864 124.96 31.3324C124.04 31.8708 122.904 32.14 121.498 32.14C117.982 32.14 116.251 30.2019 116.251 26.3257V12.8667H116.305Z"
        fill="white"
      />
      <path
        d="M130.748 24.8183C130.802 26.1103 131.235 27.1332 132.046 27.8869C132.858 28.6406 133.94 29.0175 135.238 29.0175C136.266 29.0175 137.456 28.6945 138.917 28.1023C139.944 27.6716 140.648 27.8331 141.026 28.5868C141.243 28.9098 141.297 29.2867 141.134 29.7173C141.026 30.148 140.702 30.471 140.269 30.7402C138.917 31.6554 137.131 32.0861 134.805 32.0861C132.209 32.0861 130.261 31.3324 128.909 29.825C127.557 28.3176 126.853 26.1642 126.853 23.4185C126.853 20.7268 127.557 18.6272 129.017 17.0121C130.478 15.397 132.425 14.5895 134.859 14.5895C137.077 14.5895 138.808 15.2355 140.053 16.4737C141.297 17.712 141.946 19.3809 141.946 21.4266C141.946 22.0727 141.892 22.611 141.784 23.0417C141.621 23.6339 141.351 24.0646 141.026 24.3338C140.702 24.6029 140.161 24.7644 139.512 24.7644H130.748V24.8183ZM131.992 18.8963C131.289 19.65 130.856 20.7268 130.748 22.1265H138.376C138.376 21.9111 138.43 21.5881 138.43 21.2651C138.43 20.2422 138.159 19.3809 137.564 18.7887C136.969 18.1426 136.104 17.8196 134.968 17.8196C133.723 17.8196 132.75 18.1426 131.992 18.8963Z"
        fill="white"
      />
    </g>
    <defs>
      <clippath id="clip0_13682_306">
        <rect width="142" height="40" fill="white" />
      </clippath>
    </defs>
  </symbol>
  <symbol
    width="61"
    height="61"
    viewbox="0 0 61 61"
    fill="none"
    xmlns="http://www.w3.org/2000/svg"
  >
    <g clip-path="url(#clip0_62_2726)">
      <path
        d="M13.6568 0.273438H47.3768C54.634 0.273438 60.5168 6.15625 60.5168 13.4134V47.1334C60.5168 54.3906 54.634 60.2734 47.3768 60.2734H13.6568C6.39966 60.2734 0.516846 54.3906 0.516846 47.1334V13.4134C0.516846 6.15625 6.39966 0.273438 13.6568 0.273438Z"
        fill="url(#paint0_linear_62_2726)"
      />
      <path
        d="M19.7454 43.8224L19.7511 43.8243L17.6996 47.3774C16.9508 48.6744 15.2923 49.1188 13.9953 48.37C12.6985 47.6212 12.2539 45.9627 13.0027 44.6657L14.514 42.0482L14.659 41.7969C14.918 41.4248 15.5572 40.7821 16.8357 40.903C16.8357 40.903 19.8444 41.2295 20.0621 42.7933C20.0621 42.7933 20.0916 43.3077 19.7454 43.8224ZM48.8415 34.7474H42.4444C42.0087 34.7181 41.8187 34.5625 41.7437 34.472L41.739 34.4638L34.8912 22.603L34.8823 22.6089L34.4717 22.0202C33.7986 20.9908 32.7298 23.6233 32.7298 23.6233C31.4537 26.5567 32.911 29.8916 33.4189 30.8997L42.9303 47.3739C43.6789 48.6707 45.3373 49.1153 46.6346 48.3662C47.9314 47.6174 48.376 45.959 47.6269 44.6619L45.2487 40.5426C45.2026 40.4427 45.1224 40.1718 45.6101 40.1706H48.8415C50.3391 40.1706 51.5532 38.9566 51.5532 37.4589C51.5532 35.9612 50.3391 34.7472 48.8415 34.7472V34.7474ZM36.4163 38.4337C36.4163 38.4337 36.7578 40.1706 35.4366 40.1706H11.7884C10.2908 40.1706 9.07669 38.9566 9.07669 37.4589C9.07669 35.9612 10.2908 34.7472 11.7884 34.7472H17.8681C18.8497 34.6905 19.0822 34.1237 19.0822 34.1237L19.0878 34.1266L27.0237 20.3809L27.0214 20.3805C27.166 20.1149 27.0455 19.8639 27.0247 19.8243L24.4037 15.2847C23.6548 13.9879 24.0992 12.3292 25.3962 11.5806C26.6933 10.8318 28.3517 11.2759 29.1005 12.573L30.316 14.6784L31.5294 12.5767C32.2782 11.2799 33.9366 10.8353 35.2337 11.5844C36.5307 12.3332 36.9751 13.9914 36.2262 15.2884L25.1829 34.4158C25.1347 34.5323 25.1199 34.7151 25.4792 34.7472H32.0801L32.0815 34.8116C32.0815 34.8116 35.8967 34.8709 36.4163 38.4337Z"
        fill="white"
      />
    </g>
    <defs>
      <lineargradient
        id="paint0_linear_62_2726"
        x1="30.5168"
        y1="0.273438"
        x2="30.5168"
        y2="60.2734"
        gradientunits="userSpaceOnUse"
      >
        <stop offset="1" stop-color="#17C9FB" />
        <stop offset="1" stop-color="#1A74E8" />
      </lineargradient>
      <clippath id="clip0_62_2726">
        <rect width="60" height="60" fill="white" transform="translate(0.516846 0.273438)" />
      </clippath>
    </defs>
  </symbol>
  <symbol id="features-icon-1" width="26" height="24" viewBox="0 0 26 24" fill="none" xmlns="http://www.w3.org/2000/svg">
    <path d="M7.64636 13.7764L11.4197 10.003L3.16636 1.76302C2.52636 1.12302 1.41969 1.29636 1.01969 2.12302C0.073024 4.10969 0.419691 6.54969 2.05969 8.20302L7.64636 13.7764ZM16.6864 11.363C18.7264 12.3097 21.593 11.643 23.713 9.52302C26.2597 6.97635 26.753 3.32302 24.793 1.36302C22.8464 -0.583644 19.193 -0.103644 16.633 2.44302C14.513 4.56302 13.8464 7.42969 14.793 9.46969L2.71302 21.5497C2.46372 21.799 2.32366 22.1371 2.32366 22.4897C2.32366 22.8423 2.46372 23.1804 2.71302 23.4297C2.96233 23.679 3.30046 23.819 3.65302 23.819C4.00559 23.819 4.34372 23.679 4.59302 23.4297L12.8464 15.203L21.0864 23.443C21.2098 23.5665 21.3563 23.6644 21.5176 23.7312C21.6789 23.798 21.8518 23.8324 22.0264 23.8324C22.2009 23.8324 22.3738 23.798 22.5351 23.7312C22.6964 23.6644 22.8429 23.5665 22.9664 23.443C23.0898 23.3196 23.1877 23.173 23.2545 23.0117C23.3213 22.8505 23.3557 22.6776 23.3557 22.503C23.3557 22.3284 23.3213 22.1556 23.2545 21.9943C23.1877 21.833 23.0898 21.6865 22.9664 21.563L14.7264 13.323L16.6864 11.363Z" fill="#02E4C0"/>
  </symbol>
  <symbol id="features-icon-2" width="30" height="31" viewBox="0 0 30 31" fill="none" xmlns="http://www.w3.org/2000/svg">
    <path d="M12.5495 14.2274C14.0285 16.6874 13.811 19.5824 12.042 20.7524C10.273 21.8924 7.634 20.8274 6.1405 18.3674C4.6615 15.9074 4.8935 12.9824 6.6625 11.8424C8.4315 10.7024 11.0705 11.7674 12.5495 14.2274ZM15 24.4574C17.9 24.4574 18.625 23.3324 18.625 23.3324C18.625 23.3324 17.9 26.3324 15 26.3324C12.1 26.3324 11.375 23.3774 11.375 23.3324C11.375 23.3324 12.1 24.4574 15 24.4574ZM23.3375 11.8424C25.1065 12.9824 25.3385 15.9074 23.8595 18.3674C22.366 20.8274 19.727 21.8924 17.958 20.7524C16.189 19.5824 15.9715 16.6874 17.4505 14.2274C18.9295 11.7674 21.5685 10.7024 23.3375 11.8424ZM15 27.8324C18.625 27.8324 26.6 20.1224 26.6 14.3324C26.6 8.5424 21.3945 3.8324 15 3.8324C8.6055 3.8324 3.4 8.5424 3.4 14.3324C3.4 20.1224 11.375 27.8324 15 27.8324ZM15 0.832397C22.975 0.832397 29.5 6.8924 29.5 14.3324C29.5 20.4524 21.264 30.8324 15 30.8324C8.736 30.8324 0.5 20.4524 0.5 14.3324C0.5 6.8924 7.025 0.832397 15 0.832397Z" fill="#02E4C0"/>
  </symbol>
  <symbol id="features-icon-3" width="42" height="20" viewBox="0 0 42 20" fill="none" xmlns="http://www.w3.org/2000/svg">
    <path d="M32.275 0.83256C29.815 0.83256 27.4917 1.8214 25.8346 3.53423L13.825 14.5528C12.7317 15.6829 11.2796 16.3009 9.725 16.3009C6.53042 16.3009 3.91667 13.6346 3.91667 10.3325C3.91667 7.0305 6.53042 4.36415 9.725 4.36415C11.2796 4.36415 12.7317 4.98218 13.8933 6.18292L15.8238 7.94872L18.4375 5.58255L16.2508 3.62252C15.3953 2.7349 14.3782 2.03133 13.2581 1.55246C12.1379 1.07358 10.9371 0.828905 9.725 0.83256C4.63417 0.83256 0.5 5.10579 0.5 10.3325C0.5 15.5593 4.63417 19.8325 9.725 19.8325C12.185 19.8325 14.5083 18.8437 16.1654 17.1309L28.175 6.11229C29.2683 4.98218 30.7204 4.36415 32.275 4.36415C35.4696 4.36415 38.0833 7.0305 38.0833 10.3325C38.0833 13.6346 35.4696 16.3009 32.275 16.3009C30.7375 16.3009 29.2683 15.6829 28.1067 14.4822L26.125 12.6987L23.5625 15.0649L25.7492 17.0426C26.607 17.9257 27.625 18.6252 28.7448 19.1009C29.8646 19.5767 31.0643 19.8193 32.275 19.8149C37.3658 19.8149 41.5 15.5593 41.5 10.3325C41.5 5.03515 37.3658 0.83256 32.275 0.83256Z" fill="#02E4C0"/>
  </symbol>
  <symbol id="marker" width="47" height="47" viewBox="0 0 47 47" xmlns="http://www.w3.org/2000/svg">
    <path d="M23.5 27.3802C27.7282 27.3802 31.1667 23.9417 31.1667 19.7135C31.1667 15.4854 27.7282 12.0469 23.5 12.0469C19.2719 12.0469 15.8334 15.4854 15.8334 19.7135C15.8334 23.9417 19.2719 27.3802 23.5 27.3802ZM23.5 15.8802C25.6141 15.8802 27.3334 17.5995 27.3334 19.7135C27.3334 21.8276 25.6141 23.5469 23.5 23.5469C21.386 23.5469 19.6667 21.8276 19.6667 19.7135C19.6667 17.5995 21.386 15.8802 23.5 15.8802Z"/>
    <path d="M22.3885 42.3572C22.7129 42.5889 23.1015 42.7134 23.5001 42.7134C23.8987 42.7134 24.2874 42.5889 24.6118 42.3572C25.1945 41.9451 38.889 32.057 38.8335 19.7137C38.8335 11.2593 31.9545 4.38037 23.5001 4.38037C15.0457 4.38037 8.16679 11.2593 8.16679 19.7041C8.11121 32.057 21.8058 41.9451 22.3885 42.3572ZM23.5001 8.2137C29.8424 8.2137 35.0001 13.3715 35.0001 19.7233C35.0404 28.2295 26.5898 35.8674 23.5001 38.3725C20.4124 35.8655 11.9599 28.2256 12.0001 19.7137C12.0001 13.3715 17.1579 8.2137 23.5001 8.2137Z"/>
  </symbol>
  <symbol id="phone" width="36" height="36" viewBox="0 0 36 36" xmlns="http://www.w3.org/2000/svg">
    <path d="M23.8333 1.50537H12.1666C9.74579 1.50537 7.79163 3.45954 7.79163 5.88037V29.2137C7.79163 31.6345 9.74579 33.5887 12.1666 33.5887H23.8333C26.2541 33.5887 28.2083 31.6345 28.2083 29.2137V5.88037C28.2083 3.45954 26.2541 1.50537 23.8333 1.50537ZM20.9166 30.672H15.0833V29.2137H20.9166V30.672ZM25.6562 26.297H10.3437V5.88037H25.6562V26.297Z"/>
  </symbol>
  <symbol
    id="twitter"
    width="42"
    height="42"
    viewbox="0 0 42 42"
    xmlns="http://www.w3.org/2000/svg"
  >
    <path
      d="M37.645 10.7253C36.4202 11.2537 35.0873 11.6339 33.7144 11.782C35.1398 10.9352 36.2072 9.5974 36.7164 8.01958C35.3788 8.81525 33.9136 9.37319 32.3855 9.66865C31.7469 8.98591 30.9745 8.44201 30.1165 8.07084C29.2585 7.69967 28.3332 7.50918 27.3983 7.51125C23.6159 7.51125 20.5739 10.5772 20.5739 14.3397C20.5739 14.868 20.6379 15.3964 20.742 15.9047C15.0783 15.6085 10.027 12.9027 6.66887 8.76006C6.05697 9.8052 5.73632 10.9952 5.74026 12.2063C5.74026 14.5758 6.94505 16.6652 8.78224 17.894C7.69955 17.8513 6.64222 17.5538 5.69624 17.0254V17.1095C5.69624 20.4276 8.04176 23.1774 11.1678 23.8098C10.5808 23.9623 9.97704 24.0403 9.37062 24.042C8.92633 24.042 8.50606 23.9979 8.08178 23.9379C8.94634 26.6437 11.464 28.6089 14.4619 28.673C12.1164 30.5102 9.17849 31.5909 5.98843 31.5909C5.41605 31.5909 4.88771 31.5709 4.33936 31.5068C7.36532 33.4481 10.9556 34.5688 14.8222 34.5688C27.3743 34.5688 34.2428 24.1701 34.2428 15.1442C34.2428 14.848 34.2428 14.5518 34.2227 14.2556C35.5516 13.283 36.7164 12.0782 37.645 10.7253Z"
    />
  </symbol>
  <symbol
    id="facebook"
    width="42"
    height="42"
    viewbox="0 0 42 42"
    xmlns="http://www.w3.org/2000/svg"
  >
    <path
      d="M35.7103 5.02979H6.25117C5.54271 5.02979 4.97034 5.60216 4.97034 6.31062V35.7697C4.97034 36.4782 5.54271 37.0506 6.25117 37.0506H35.7103C36.4187 37.0506 36.9911 36.4782 36.9911 35.7697V6.31062C36.9911 5.60216 36.4187 5.02979 35.7103 5.02979ZM32.0119 14.3758H29.4542C27.4489 14.3758 27.0607 15.3285 27.0607 16.7294V19.8154H31.8478L31.2234 24.6465H27.0607V37.0506H22.0694V24.6505H17.8947V19.8154H22.0694V16.2531C22.0694 12.1184 24.5951 9.86492 28.2855 9.86492C30.0546 9.86492 31.5716 9.99701 32.0159 10.057V14.3758H32.0119Z"
    />
  </symbol>
  <symbol
    id="linkedin"
    width="42"
    height="42"
    viewbox="0 0 42 42"
    xmlns="http://www.w3.org/2000/svg"
  >
    <path
      d="M35.6981 5.02979H6.23896C5.5305 5.02979 4.95813 5.60216 4.95813 6.31062V35.7697C4.95813 36.4782 5.5305 37.0506 6.23896 37.0506H35.6981C36.4065 37.0506 36.9789 36.4782 36.9789 35.7697V6.31062C36.9789 5.60216 36.4065 5.02979 35.6981 5.02979ZM14.4563 32.3155H9.70521V17.0336H14.4563V32.3155ZM12.0828 14.9442C11.5381 14.9442 11.0057 14.7827 10.5528 14.4801C10.1 14.1775 9.74701 13.7474 9.53859 13.2443C9.33016 12.7411 9.27562 12.1874 9.38188 11.6532C9.48813 11.119 9.75041 10.6283 10.1355 10.2432C10.5207 9.85809 11.0113 9.59581 11.5455 9.48956C12.0797 9.3833 12.6334 9.43784 13.1366 9.64626C13.6398 9.85469 14.0699 10.2077 14.3724 10.6605C14.675 11.1134 14.8365 11.6458 14.8365 12.1904C14.8325 13.7114 13.5997 14.9442 12.0828 14.9442ZM32.2438 32.3155H27.4968V24.8827C27.4968 23.1095 27.4647 20.832 25.0272 20.832C22.5576 20.832 22.1773 22.7613 22.1773 24.7546V32.3155H17.4342V17.0336H21.9892V19.1229H22.0532C22.6856 17.9222 24.2346 16.6533 26.5481 16.6533C31.3593 16.6533 32.2438 19.8194 32.2438 23.9341V32.3155Z"
    />
  </symbol>
</svg>