<svg>
  <symbol id="features-icon-1" width="26" height="24" viewBox="0 0 26 24" fill="none" xmlns="http://www.w3.org/2000/svg">
    <path d="M7.64636 13.7764L11.4197 10.003L3.16636 1.76302C2.52636 1.12302 1.41969 1.29636 1.01969 2.12302C0.073024 4.10969 0.419691 6.54969 2.05969 8.20302L7.64636 13.7764ZM16.6864 11.363C18.7264 12.3097 21.593 11.643 23.713 9.52302C26.2597 6.97635 26.753 3.32302 24.793 1.36302C22.8464 -0.583644 19.193 -0.103644 16.633 2.44302C14.513 4.56302 13.8464 7.42969 14.793 9.46969L2.71302 21.5497C2.46372 21.799 2.32366 22.1371 2.32366 22.4897C2.32366 22.8423 2.46372 23.1804 2.71302 23.4297C2.96233 23.679 3.30046 23.819 3.65302 23.819C4.00559 23.819 4.34372 23.679 4.59302 23.4297L12.8464 15.203L21.0864 23.443C21.2098 23.5665 21.3563 23.6644 21.5176 23.7312C21.6789 23.798 21.8518 23.8324 22.0264 23.8324C22.2009 23.8324 22.3738 23.798 22.5351 23.7312C22.6964 23.6644 22.8429 23.5665 22.9664 23.443C23.0898 23.3196 23.1877 23.173 23.2545 23.0117C23.3213 22.8505 23.3557 22.6776 23.3557 22.503C23.3557 22.3284 23.3213 22.1556 23.2545 21.9943C23.1877 21.833 23.0898 21.6865 22.9664 21.563L14.7264 13.323L16.6864 11.363Z" fill="#02E4C0"/>
  </symbol>
  <symbol id="features-icon-2" width="30" height="31" viewBox="0 0 30 31" fill="none" xmlns="http://www.w3.org/2000/svg">
    <path d="M12.5495 14.2274C14.0285 16.6874 13.811 19.5824 12.042 20.7524C10.273 21.8924 7.634 20.8274 6.1405 18.3674C4.6615 15.9074 4.8935 12.9824 6.6625 11.8424C8.4315 10.7024 11.0705 11.7674 12.5495 14.2274ZM15 24.4574C17.9 24.4574 18.625 23.3324 18.625 23.3324C18.625 23.3324 17.9 26.3324 15 26.3324C12.1 26.3324 11.375 23.3774 11.375 23.3324C11.375 23.3324 12.1 24.4574 15 24.4574ZM23.3375 11.8424C25.1065 12.9824 25.3385 15.9074 23.8595 18.3674C22.366 20.8274 19.727 21.8924 17.958 20.7524C16.189 19.5824 15.9715 16.6874 17.4505 14.2274C18.9295 11.7674 21.5685 10.7024 23.3375 11.8424ZM15 27.8324C18.625 27.8324 26.6 20.1224 26.6 14.3324C26.6 8.5424 21.3945 3.8324 15 3.8324C8.6055 3.8324 3.4 8.5424 3.4 14.3324C3.4 20.1224 11.375 27.8324 15 27.8324ZM15 0.832397C22.975 0.832397 29.5 6.8924 29.5 14.3324C29.5 20.4524 21.264 30.8324 15 30.8324C8.736 30.8324 0.5 20.4524 0.5 14.3324C0.5 6.8924 7.025 0.832397 15 0.832397Z" fill="#02E4C0"/>
  </symbol>
  <symbol id="features-icon-3" width="42" height="20" viewBox="0 0 42 20" fill="none" xmlns="http://www.w3.org/2000/svg">
    <path d="M32.275 0.83256C29.815 0.83256 27.4917 1.8214 25.8346 3.53423L13.825 14.5528C12.7317 15.6829 11.2796 16.3009 9.725 16.3009C6.53042 16.3009 3.91667 13.6346 3.91667 10.3325C3.91667 7.0305 6.53042 4.36415 9.725 4.36415C11.2796 4.36415 12.7317 4.98218 13.8933 6.18292L15.8238 7.94872L18.4375 5.58255L16.2508 3.62252C15.3953 2.7349 14.3782 2.03133 13.2581 1.55246C12.1379 1.07358 10.9371 0.828905 9.725 0.83256C4.63417 0.83256 0.5 5.10579 0.5 10.3325C0.5 15.5593 4.63417 19.8325 9.725 19.8325C12.185 19.8325 14.5083 18.8437 16.1654 17.1309L28.175 6.11229C29.2683 4.98218 30.7204 4.36415 32.275 4.36415C35.4696 4.36415 38.0833 7.0305 38.0833 10.3325C38.0833 13.6346 35.4696 16.3009 32.275 16.3009C30.7375 16.3009 29.2683 15.6829 28.1067 14.4822L26.125 12.6987L23.5625 15.0649L25.7492 17.0426C26.607 17.9257 27.625 18.6252 28.7448 19.1009C29.8646 19.5767 31.0643 19.8193 32.275 19.8149C37.3658 19.8149 41.5 15.5593 41.5 10.3325C41.5 5.03515 37.3658 0.83256 32.275 0.83256Z" fill="#02E4C0"/>
  </symbol>
  <symbol id="marker" width="47" height="47" viewBox="0 0 47 47" xmlns="http://www.w3.org/2000/svg">
    <path d="M23.5 27.3802C27.7282 27.3802 31.1667 23.9417 31.1667 19.7135C31.1667 15.4854 27.7282 12.0469 23.5 12.0469C19.2719 12.0469 15.8334 15.4854 15.8334 19.7135C15.8334 23.9417 19.2719 27.3802 23.5 27.3802ZM23.5 15.8802C25.6141 15.8802 27.3334 17.5995 27.3334 19.7135C27.3334 21.8276 25.6141 23.5469 23.5 23.5469C21.386 23.5469 19.6667 21.8276 19.6667 19.7135C19.6667 17.5995 21.386 15.8802 23.5 15.8802Z"/>
    <path d="M22.3885 42.3572C22.7129 42.5889 23.1015 42.7134 23.5001 42.7134C23.8987 42.7134 24.2874 42.5889 24.6118 42.3572C25.1945 41.9451 38.889 32.057 38.8335 19.7137C38.8335 11.2593 31.9545 4.38037 23.5001 4.38037C15.0457 4.38037 8.16679 11.2593 8.16679 19.7041C8.11121 32.057 21.8058 41.9451 22.3885 42.3572ZM23.5001 8.2137C29.8424 8.2137 35.0001 13.3715 35.0001 19.7233C35.0404 28.2295 26.5898 35.8674 23.5001 38.3725C20.4124 35.8655 11.9599 28.2256 12.0001 19.7137C12.0001 13.3715 17.1579 8.2137 23.5001 8.2137Z"/>
  </symbol>
  <symbol id="phone" width="36" height="36" viewBox="0 0 36 36" xmlns="http://www.w3.org/2000/svg">
    <path d="M23.8333 1.50537H12.1666C9.74579 1.50537 7.79163 3.45954 7.79163 5.88037V29.2137C7.79163 31.6345 9.74579 33.5887 12.1666 33.5887H23.8333C26.2541 33.5887 28.2083 31.6345 28.2083 29.2137V5.88037C28.2083 3.45954 26.2541 1.50537 23.8333 1.50537ZM20.9166 30.672H15.0833V29.2137H20.9166V30.672ZM25.6562 26.297H10.3437V5.88037H25.6562V26.297Z"/>
  </symbol>
</svg>